<svg xmlns="http://www.w3.org/2000/svg" xmlns:xlink="http://www.w3.org/1999/xlink" width="170.035" height="48.084" viewBox="0 0 170.035 48.084"><defs><clipPath id="clip-path"><rect id="Rectangle_142" data-name="Rectangle 142" width="170.035" height="48.084" fill="none"></rect></clipPath></defs><g id="Group_100" data-name="Group 100" transform="translate(0 0)"><g id="Group_99" data-name="Group 99" transform="translate(0 0)" clip-path="url(#clip-path)"><path id="Path_176" data-name="Path 176" d="M38.9.949a2.182,2.182,0,1,1,3.6,2.471A2.182,2.182,0,1,1,38.9.949" transform="translate(-18.845 0)" fill="#fff"></path><path id="Path_177" data-name="Path 177" d="M38.9,86.552a2.185,2.185,0,1,1,.551,3.046,2.189,2.189,0,0,1-.551-3.046" transform="translate(-18.845 -41.898)" fill="#fff"></path><path id="Path_178" data-name="Path 178" d="M.387,43.744A2.187,2.187,0,1,1,.943,46.8a2.2,2.2,0,0,1-.556-3.054" transform="translate(0 -20.948)" fill="#fff"></path><path id="Path_179" data-name="Path 179" d="M9.346,72.1a2.185,2.185,0,1,1,3.591,2.49,2.155,2.155,0,0,1-3.027.554A2.183,2.183,0,0,1,9.346,72.1" transform="translate(-4.384 -34.823)" fill="#fff"></path><path id="Path_180" data-name="Path 180" d="M9.346,15.4a2.181,2.181,0,1,1,3.591,2.478A2.181,2.181,0,0,1,9.346,15.4" transform="translate(-4.384 -7.074)" fill="#fff"></path><path id="Path_181" data-name="Path 181" d="M58.963,14.524a17.458,17.458,0,0,0-3.025-1.06,15.635,15.635,0,0,0-3.858-.412,13.158,13.158,0,0,0-4.273.645,8.559,8.559,0,0,0-3.371,2.067,9.2,9.2,0,0,0-2.189,3.661,16.516,16.516,0,0,0-.768,5.347v1.976c0,7.869,3.171,11.866,9.423,11.866a12.321,12.321,0,0,0,5.07-.933,7.907,7.907,0,0,0,3.088-2.523l.242,2.893h2.953V2.711h-3.29Zm-7.31,21.127a8.139,8.139,0,0,1-3.319-.591,4.922,4.922,0,0,1-2.046-1.772A8.1,8.1,0,0,1,45.2,30.3a22.288,22.288,0,0,1-.333-4.171V25.24a20.022,20.022,0,0,1,.388-4.177,7.38,7.38,0,0,1,1.272-2.869,5.381,5.381,0,0,1,2.362-1.7,10.348,10.348,0,0,1,3.658-.571,14.671,14.671,0,0,1,3.308.352,12.92,12.92,0,0,1,3.107,1.153V27.786a13.88,13.88,0,0,1-.372,3.286,6.209,6.209,0,0,1-1.209,2.463A5.367,5.367,0,0,1,55.135,35.1a9.98,9.98,0,0,1-3.481.548" transform="translate(-20.299 -1.327)" fill="#fff"></path><rect id="Rectangle_140" data-name="Rectangle 140" width="3.339" height="24.437" transform="translate(48.106 12.289)" fill="#fff"></rect><path id="Path_182" data-name="Path 182" d="M127.6,23.564a19.416,19.416,0,0,0-5.029-.6,13.673,13.673,0,0,0-4.6.72,9.36,9.36,0,0,0-3.608,2.2,10,10,0,0,0-2.323,3.7,14.889,14.889,0,0,0-.817,5.2v1.606a18.2,18.2,0,0,0,.684,5.336,9.639,9.639,0,0,0,1.949,3.563,7.38,7.38,0,0,0,3,1.985,11.554,11.554,0,0,0,3.833.593,14,14,0,0,0,3.148-.306,8.8,8.8,0,0,0,2.338-.869,7.288,7.288,0,0,0,1.69-1.256,7.812,7.812,0,0,0,.788-.9V46.62a20.546,20.546,0,0,1-.374,4.057,7.635,7.635,0,0,1-1.256,3,5.552,5.552,0,0,1-2.33,1.863,9.231,9.231,0,0,1-3.677.64,26.818,26.818,0,0,1-4.07-.286,33.277,33.277,0,0,1-3.858-.825L112.882,55l-.717,2.8.2.067a29.331,29.331,0,0,0,8.521,1.272,13.969,13.969,0,0,0,5.006-.816,8.457,8.457,0,0,0,3.46-2.381,9.857,9.857,0,0,0,1.977-3.773,17.867,17.867,0,0,0,.62-4.906V25.257l-.108-.064a17.609,17.609,0,0,0-4.239-1.629m1.056,3.553V36.8c0,2.877-.609,4.983-1.8,6.274-1.185,1.276-3.047,1.917-5.5,1.917a7.928,7.928,0,0,1-3.279-.591,5.031,5.031,0,0,1-2.07-1.726,7.273,7.273,0,0,1-1.125-2.887,21.859,21.859,0,0,1-.324-3.974v-.557c0-3.337.664-5.784,1.993-7.21,1.307-1.439,3.381-2.171,6.156-2.171a15.928,15.928,0,0,1,3.406.322,12.476,12.476,0,0,1,2.539.921" transform="translate(-54.431 -11.238)" fill="#fff"></path><rect id="Rectangle_141" data-name="Rectangle 141" width="3.332" height="24.437" transform="translate(83.68 12.289)" fill="#fff"></rect><path id="Path_183" data-name="Path 183" d="M191.569,39.464a11.886,11.886,0,0,1-1.539.11,9.159,9.159,0,0,1-2.18-.235,3.274,3.274,0,0,1-1.5-.8,3.869,3.869,0,0,1-.889-1.652,11,11,0,0,1-.293-2.734V20.444H192.7l.554-2.907H185.17V10.725l-3.25.594v6.217h-4.385l-.484,2.907h4.869V34.1a14.534,14.534,0,0,0,.456,3.952,6.047,6.047,0,0,0,1.4,2.588,5,5,0,0,0,2.315,1.385,11.975,11.975,0,0,0,6.64-.107l.123-.054.5-2.731-.315.058c-.466.093-.953.18-1.47.272" transform="translate(-86.645 -5.249)" fill="#fff"></path><path id="Path_184" data-name="Path 184" d="M230.817,25.075a8.745,8.745,0,0,0-3.237-1.612,15.554,15.554,0,0,0-4.157-.5,21.955,21.955,0,0,0-3.533.28,25.676,25.676,0,0,0-3.059.663l-.126.035-.56,2.756.325-.077c.991-.216,2.1-.405,3.274-.561a27.391,27.391,0,0,1,3.4-.227q3.761,0,5.57,1.584c1.182,1.052,1.782,2.849,1.782,5.342v1.817a6.515,6.515,0,0,0-2.531-1.36,14.721,14.721,0,0,0-4.344-.582c-3.2,0-5.623.624-7.212,1.864S214,37.707,214,40.368v.568c0,2.593.792,4.517,2.347,5.707,1.539,1.188,3.827,1.789,6.8,1.789a12,12,0,0,0,4.593-.792,7.081,7.081,0,0,0,2.848-2.142l.213,2.464h2.894V32.238a10.993,10.993,0,0,0-.743-4.264,7.107,7.107,0,0,0-2.13-2.9m-7.487,20.531c-2.224,0-3.813-.4-4.728-1.174a4.766,4.766,0,0,1-1.354-3.785v-.323a7.936,7.936,0,0,1,.277-2.176,3.325,3.325,0,0,1,.945-1.543,4.433,4.433,0,0,1,1.842-.986,10.82,10.82,0,0,1,2.971-.344h.752a14.011,14.011,0,0,1,2.59.225,5.917,5.917,0,0,1,2.046.779,3.715,3.715,0,0,1,1.338,1.426,4.7,4.7,0,0,1,.486,2.243v.375a5.647,5.647,0,0,1-.382,2.1,4.006,4.006,0,0,1-1.21,1.653,5.955,5.955,0,0,1-2.205,1.112,11.9,11.9,0,0,1-3.367.418" transform="translate(-104.726 -11.238)" fill="#fff"></path><path id="Path_185" data-name="Path 185" d="M271.62,39.464a12.119,12.119,0,0,1-1.532.11,9.2,9.2,0,0,1-2.186-.235,3.23,3.23,0,0,1-1.491-.8,3.688,3.688,0,0,1-.889-1.652,10.4,10.4,0,0,1-.3-2.734V20.444h7.522l.57-2.907h-8.092V10.725l-3.25.594v6.217h-4.386l-.484,2.907h4.869V34.1a14.76,14.76,0,0,0,.451,3.952,6.247,6.247,0,0,0,1.393,2.588,5.055,5.055,0,0,0,2.323,1.385,10.566,10.566,0,0,0,3.15.418,10.7,10.7,0,0,0,3.491-.524l.122-.054.5-2.731-.318.058c-.451.093-.953.18-1.463.272" transform="translate(-125.822 -5.249)" fill="#fff"></path><path id="Path_186" data-name="Path 186" d="M313.536,28.918a8.21,8.21,0,0,0-1.678-3.128A8.035,8.035,0,0,0,308.91,23.7a10.88,10.88,0,0,0-4.218-.737,12.132,12.132,0,0,0-4.733.834,8.118,8.118,0,0,0-3.237,2.432,10.128,10.128,0,0,0-1.827,3.8,19.6,19.6,0,0,0-.577,4.886v1.841a19.886,19.886,0,0,0,.6,5.119,8.53,8.53,0,0,0,1.983,3.686,8.261,8.261,0,0,0,3.633,2.217,17.532,17.532,0,0,0,5.478.747,24.771,24.771,0,0,0,3.339-.236,15.242,15.242,0,0,0,2.828-.618l.124-.042.443-2.752-.3.082c-.783.178-1.691.343-2.8.485a23.687,23.687,0,0,1-3.074.213,16.63,16.63,0,0,1-4.38-.488,5.485,5.485,0,0,1-4.155-4.27,18.086,18.086,0,0,1-.456-3.938h14.111a2.257,2.257,0,0,0,1.944-.651,3.721,3.721,0,0,0,.431-2.095V32.858a13.64,13.64,0,0,0-.532-3.939M304.5,25.835c2.24,0,3.9.592,4.923,1.758a7.936,7.936,0,0,1,1.532,5.308v1.426H297.581a15.926,15.926,0,0,1,.434-3.905,6.757,6.757,0,0,1,1.3-2.674,4.883,4.883,0,0,1,2.133-1.459,9.162,9.162,0,0,1,3.052-.454" transform="translate(-144.034 -11.238)" fill="#fff"></path></g></g></svg>